<svg width="116" height="116" viewBox="0 0 116 116" fill="none" xmlns="http://www.w3.org/2000/svg">
<g clip-path="url(#clip0_3_464)">
<path d="M57.9528 9.66669C31.2728 9.66669 9.61951 31.32 9.61951 58C9.61951 84.68 31.2728 106.333 57.9528 106.333C84.6328 106.333 106.286 84.68 106.286 58C106.286 31.32 84.6328 9.66669 57.9528 9.66669ZM75.4012 40.31C80.5728 40.31 84.7295 44.4667 84.7295 49.6384C84.7295 54.81 80.5728 58.9667 75.4012 58.9667C70.2295 58.9667 66.0728 54.81 66.0728 49.6384C66.0245 44.4667 70.2295 40.31 75.4012 40.31ZM46.4012 32.6734C52.6845 32.6734 57.8078 37.7967 57.8078 44.08C57.8078 50.3633 52.6845 55.4867 46.4012 55.4867C40.1178 55.4867 34.9945 50.3633 34.9945 44.08C34.9945 37.7484 40.0695 32.6734 46.4012 32.6734ZM46.4012 76.8017V94.9267C34.8012 91.3017 25.6178 82.36 21.5578 70.9534C26.6328 65.54 39.2962 62.785 46.4012 62.785C48.9628 62.785 52.2012 63.1717 55.5845 63.8484C47.6578 68.0533 46.4012 73.6117 46.4012 76.8017ZM57.9528 96.6667C56.6478 96.6667 55.3912 96.6183 54.1345 96.4733V76.8017C54.1345 69.9384 68.3445 66.5067 75.4012 66.5067C80.5728 66.5067 89.5145 68.3917 93.9612 72.065C88.3062 86.42 74.3378 96.6667 57.9528 96.6667Z" fill="#F5A33B"/>
</g>
<defs>
<clipPath id="clip0_3_464">
<rect width="116" height="116" fill="white"/>
</clipPath>
</defs>
</svg>
