<svg width="16" height="16" viewBox="0 0 16 16" fill="none" xmlns="http://www.w3.org/2000/svg">
<path d="M7.30273 5.94922C6.17193 5.94922 5.25195 6.8692 5.25195 8C5.25195 9.1308 6.17193 10.0508 7.30273 10.0508C8.43354 10.0508 9.35352 9.1308 9.35352 8C9.35352 6.8692 8.43354 5.94922 7.30273 5.94922Z" fill="#FE9400"/>
<path d="M11.2676 1C10.3629 1 9.62695 1.73598 9.62695 2.64062C9.62695 3.54527 10.3629 4.28125 11.2676 4.28125C12.1722 4.28125 12.9082 3.54527 12.9082 2.64062C12.9082 1.73598 12.1722 1 11.2676 1Z" fill="#FE9400"/>
<path d="M3.88477 1C2.67858 1 1.69727 1.98131 1.69727 3.1875C1.69727 4.39369 2.67858 5.375 3.88477 5.375C5.09095 5.375 6.07227 4.39369 6.07227 3.1875C6.07227 1.98131 5.09095 1 3.88477 1Z" fill="#FE9400"/>
<path d="M12.1152 9.23047C10.909 9.23047 9.92773 10.2118 9.92773 11.418C9.92773 12.6242 10.909 13.6055 12.1152 13.6055C13.3214 13.6055 14.3027 12.6242 14.3027 11.418C14.3027 10.2118 13.3214 9.23047 12.1152 9.23047Z" fill="#FE9400"/>
<path d="M3.33789 11.7188C2.43325 11.7188 1.69727 12.4547 1.69727 13.3594C1.69727 14.264 2.43325 15 3.33789 15C4.24253 15 4.97852 14.264 4.97852 13.3594C4.97852 12.4547 4.24253 11.7188 3.33789 11.7188Z" fill="#FE9400"/>
</svg>
