<svg width="16" height="16" viewBox="0 0 16 16" fill="none" xmlns="http://www.w3.org/2000/svg">
<path fill-rule="evenodd" clip-rule="evenodd" d="M6.44452 8.77792H1.77779C1.35 8.77792 1 8.42792 1 8.00013V1.77779C1 1.35001 1.35 1 1.77779 1H6.44452C6.8723 1 7.22231 1.35001 7.22231 1.77779V8.00013C7.22231 8.42792 6.8723 8.77792 6.44452 8.77792ZM6.44452 15.0002H1.77779C1.35 15.0002 1 14.6502 1 14.2224V11.1112C1 10.6834 1.35 10.3334 1.77779 10.3334H6.44452C6.8723 10.3334 7.22231 10.6834 7.22231 11.1112V14.2224C7.22231 14.6502 6.8723 15.0002 6.44452 15.0002ZM9.55532 15.0005H14.222C14.6498 15.0005 14.9998 14.6505 14.9998 14.2228V8.00036C14.9998 7.57257 14.6498 7.22256 14.222 7.22256H9.55532C9.12753 7.22256 8.77753 7.57257 8.77753 8.00036V14.2228C8.77753 14.6505 9.12753 15.0005 9.55532 15.0005ZM8.77753 4.88901V1.7778C8.77753 1.35001 9.12753 1 9.55532 1H14.222C14.6498 1 14.9998 1.35001 14.9998 1.7778V4.88901C14.9998 5.3168 14.6498 5.66681 14.222 5.66681H9.55532C9.12753 5.66681 8.77753 5.3168 8.77753 4.88901Z" fill="#FE9400"/>
</svg>
