<svg width="16" height="16" viewBox="0 0 16 16" fill="none" xmlns="http://www.w3.org/2000/svg">
<path fill-rule="evenodd" clip-rule="evenodd" d="M8.728 1.5098L9.4 2.85319H14.0667C14.58 2.85319 15 3.27011 15 3.77967V10.1912C15 10.7008 14.58 11.1177 14.0667 11.1177H9.036C8.69067 11.1177 8.364 10.9231 8.20533 10.6081L7.53333 9.26473H2.86667V14.0738C2.86667 14.5833 2.44667 15.0002 1.93333 15.0002C1.42 15.0002 1 14.5833 1 14.0738V1.92672C1 1.41716 1.42 1.00024 1.93333 1.00024H7.888C8.24267 1.00024 8.56933 1.1948 8.728 1.5098ZM9.40052 9.26423H13.1339V4.50041H8.46719L7.53385 2.64748H2.86719V7.41131H8.46719L9.40052 9.26423Z" fill="#FE9400"/>
</svg>
