<svg width="16" height="16" viewBox="0 0 16 16" fill="none" xmlns="http://www.w3.org/2000/svg">
<path fill-rule="evenodd" clip-rule="evenodd" d="M8 15C8.9625 15 9.75 14.2125 9.75 13.25V2.75C9.75 1.7875 8.9625 1 8 1C7.0375 1 6.25 1.7875 6.25 2.75V13.25C6.25 14.2125 7.0375 15 8 15ZM2.75 14.9998C3.7125 14.9998 4.5 14.2124 4.5 13.2499V9.74994C4.5 8.78746 3.7125 7.99997 2.75 7.99997C1.7875 7.99997 1 8.78746 1 9.74994V13.2499C1 14.2124 1.7875 14.9998 2.75 14.9998ZM11.5 13.2499V7.12491C11.5 6.16241 12.2875 5.37491 13.25 5.37491C14.2125 5.37491 15 6.16241 15 7.12491V13.2499C15 14.2124 14.2125 14.9999 13.25 14.9999C12.2875 14.9999 11.5 14.2124 11.5 13.2499Z" fill="#FE9400"/>
</svg>
