<svg width="16" height="16" viewBox="0 0 16 16" fill="none" xmlns="http://www.w3.org/2000/svg">
<path d="M8 1C4.1552 1 1 4.1552 1 8C1 11.8448 4.1552 15 8 15C11.8448 15 15 11.8448 15 8C15 4.1552 11.8448 1 8 1ZM8 12.9219C7.54694 12.9219 7.17969 12.5546 7.17969 12.1016C7.17969 11.6485 7.54694 11.2812 8 11.2812C8.45306 11.2812 8.82031 11.6485 8.82031 12.1016C8.82031 12.5546 8.45306 12.9219 8 12.9219ZM9.45357 7.52416C9.21726 7.69799 8.82031 8.06891 8.82031 8.60441V8.82031C8.82031 9.27332 8.453 9.64062 8 9.64062C7.547 9.64062 7.17969 9.27332 7.17969 8.82031V8.60441C7.17969 7.68516 7.65473 6.80918 8.48305 6.20155C8.69735 6.04416 8.82031 5.80301 8.82031 5.53906C8.82031 5.08685 8.45221 4.71875 8 4.71875C7.54779 4.71875 7.17969 5.08685 7.17969 5.53906C7.17969 5.99207 6.81238 6.35938 6.35938 6.35938C5.90637 6.35938 5.53906 5.99207 5.53906 5.53906C5.53906 4.18202 6.64296 3.07812 8 3.07812C9.35704 3.07812 10.4609 4.18202 10.4609 5.53906C10.4609 6.31932 10.0844 7.06154 9.45357 7.52416Z" fill="#FE9400"/>
</svg>
